<?xml version="1.0"?>
<svg xmlns="http://www.w3.org/2000/svg" xmlns:xlink="http://www.w3.org/1999/xlink" width="500" zoomAndPan="magnify" viewBox="0 0 375 374.999991" height="500" preserveAspectRatio="xMidYMid meet" version="1.0" style="background-color:transparent;">
  <defs>
    <g/>
    <clipPath id="a7ed52098b">
      <path d="M 146 31 L 308 31 L 308 184 L 146 184 Z M 146 31 " clip-rule="nonzero"/>
    </clipPath>
    <clipPath id="2ead48ef68">
      <path d="M 103.839844 27.890625 L 320.289062 16.523438 L 328.667969 176.054688 L 112.214844 187.421875 Z M 103.839844 27.890625 " clip-rule="nonzero"/>
    </clipPath>
    <clipPath id="a7e63edbf6">
      <path d="M 103.839844 27.890625 L 320.289062 16.523438 L 328.667969 176.054688 L 112.214844 187.421875 Z M 103.839844 27.890625 " clip-rule="nonzero"/>
    </clipPath>
    <clipPath id="81a130ceeb">
      <path d="M 114 97 L 232 97 L 232 185 L 114 185 Z M 114 97 " clip-rule="nonzero"/>
    </clipPath>
    <clipPath id="80f62cd97e">
      <path d="M 103.839844 27.890625 L 320.289062 16.523438 L 328.667969 176.054688 L 112.214844 187.421875 Z M 103.839844 27.890625 " clip-rule="nonzero"/>
    </clipPath>
    <clipPath id="415e64ec3d">
      <path d="M 103.839844 27.890625 L 320.289062 16.523438 L 328.667969 176.054688 L 112.214844 187.421875 Z M 103.839844 27.890625 " clip-rule="nonzero"/>
    </clipPath>
    <clipPath id="90bbbc8cc0">
      <path d="M 109 185 L 345 185 L 345 239.707031 L 109 239.707031 Z M 109 185 " clip-rule="nonzero"/>
    </clipPath>
    <clipPath id="7d3f5a49a9">
      <path d="M 34.246094 155 L 360 155 L 360 223 L 34.246094 223 Z M 34.246094 155 " clip-rule="nonzero"/>
    </clipPath>
    <clipPath id="b45b05d3be">
      <path d="M 36 137.707031 L 178 137.707031 L 178 199 L 36 199 Z M 36 137.707031 " clip-rule="nonzero"/>
    </clipPath>
    <clipPath id="24e3f0ff4a">
      <rect x="0" width="234" y="0" height="204"/>
    </clipPath>
    <clipPath id="677af10e0c">
      <rect x="0" width="193" y="0" height="145"/>
    </clipPath>
  </defs>
  <rect x="-37.5" width="450" fill="none" y="-37.499999" height="449.999989" fill-opacity="1"/>
  <rect x="-37.5" width="450" fill="none" y="-37.499999" height="449.999989" fill-opacity="1"/>
  <g clip-path="url(#a7ed52098b)">
    <g clip-path="url(#2ead48ef68)">
      <g clip-path="url(#a7e63edbf6)">
        <path fill="#b4b4b4" d="M 146.261719 121.070312 C 146.261719 121.070312 170.050781 121.730469 205.277344 82.601562 C 240.5 43.46875 271.125 40.050781 286.09375 63.097656 C 301.0625 86.144531 280.480469 108.128906 280.480469 108.128906 C 280.480469 108.128906 281.382812 97.242188 280.84375 86.953125 C 280.304688 76.664062 275.789062 69.96875 275.789062 69.96875 C 275.789062 69.96875 277.867188 85.457031 276.226562 93.179688 C 274.589844 100.898438 267.117188 107.875 267.117188 107.875 L 262.277344 108.21875 C 262.277344 108.21875 263.246094 99.863281 260.328125 90.894531 C 257.414062 81.925781 249.964844 76.785156 249.964844 76.785156 C 249.964844 76.785156 256.597656 87.535156 256.960938 94.449219 C 257.324219 101.367188 256.558594 109.90625 256.558594 109.90625 C 256.558594 109.90625 238.84375 109.277344 216.316406 119.476562 C 193.792969 129.675781 178.164062 145.753906 178.164062 145.753906 C 178.164062 145.753906 218.347656 125.089844 244.492188 121.117188 C 270.640625 117.144531 283.144531 124.117188 283.144531 124.117188 L 290.078125 143.867188 C 290.078125 143.867188 263.742188 144.210938 236.964844 152.726562 C 210.191406 161.242188 181.882812 183.535156 181.882812 183.535156 C 181.882812 183.535156 229.175781 162.84375 256.304688 157.777344 C 283.433594 152.714844 305.785156 155.699219 305.785156 155.699219 L 291.183594 118.667969 C 291.183594 118.667969 323.519531 73.96875 297.976562 46.527344 C 272.433594 19.082031 229.058594 28.46875 199.574219 71.285156 C 170.089844 114.101562 146.261719 121.070312 146.261719 121.070312 Z M 146.261719 121.070312 " fill-opacity="1" fill-rule="evenodd"/>
      </g>
    </g>
  </g>
  <g clip-path="url(#81a130ceeb)">
    <g clip-path="url(#80f62cd97e)">
      <g clip-path="url(#415e64ec3d)">
        <path fill="#27a650" d="M 162.113281 97.527344 C 162.113281 97.527344 118.746094 107.085938 123.648438 134.398438 C 128.550781 161.710938 166.09375 146.910156 166.09375 146.910156 L 172.914062 167.890625 C 172.914062 167.890625 188.515625 157.867188 202.804688 152.609375 C 217.09375 147.351562 231.730469 148.664062 231.730469 148.664062 C 231.730469 148.664062 200.875 155.488281 188.597656 166.015625 C 176.320312 176.542969 167.71875 184.449219 167.71875 184.449219 L 159.167969 160.277344 C 159.167969 160.277344 122.726562 169.648438 115.449219 140.03125 C 108.171875 110.417969 131.027344 96.558594 162.113281 97.527344 Z M 162.113281 97.527344 " fill-opacity="1" fill-rule="evenodd"/>
      </g>
    </g>
  </g>
  <g clip-path="url(#90bbbc8cc0)">
    <path fill="#b4b4b4" d="M 344.273438 197.839844 C 338.445312 195.9375 331.589844 194.378906 323.984375 193.757812 C 321.367188 193.507812 318.65625 193.414062 315.878906 193.414062 C 304.191406 193.414062 291.382812 195.46875 277.761719 199.523438 C 272.929688 200.988281 268.878906 202.328125 265.074219 203.667969 C 261.179688 205.070312 257.097656 206.628906 252.109375 208.59375 C 243.070312 212.238281 233.75 216.199219 225.867188 219.59375 L 224.902344 219.96875 C 216.609375 223.429688 208.039062 226.980469 199.746094 229.910156 C 195.601562 231.4375 191.332031 232.808594 187.09375 234.023438 C 182.480469 235.394531 178.492188 236.394531 174.78125 237.144531 C 167.175781 238.761719 159.695312 239.574219 152.558594 239.574219 C 144.984375 239.574219 137.816406 238.671875 131.207031 236.832031 C 123.011719 234.679688 115.8125 231.222656 109.953125 227.667969 C 115.75 229.539062 122.574219 231.125 130.117188 231.71875 C 132.734375 231.96875 135.445312 232.09375 138.21875 232.09375 C 149.910156 232.09375 162.71875 230.003906 176.339844 225.953125 C 180.859375 224.582031 185.035156 223.210938 189.023438 221.808594 C 193.484375 220.1875 197.878906 218.472656 201.992188 216.882812 C 211.03125 213.234375 220.285156 209.277344 228.234375 205.882812 L 229.667969 205.257812 C 237.804688 201.890625 246.21875 198.402344 254.324219 195.535156 C 258.71875 193.945312 262.988281 192.542969 267.007812 191.386719 C 271.808594 189.984375 275.734375 189.019531 279.320312 188.269531 C 286.925781 186.648438 294.40625 185.839844 301.542969 185.839844 C 309.117188 185.839844 316.285156 186.777344 322.894531 188.582031 C 331.152344 190.765625 338.382812 194.253906 344.273438 197.839844 " fill-opacity="1" fill-rule="nonzero"/>
  </g>
  <g clip-path="url(#7d3f5a49a9)">
    <path fill="#27a650" d="M 359.765625 193.054688 C 359.484375 192.898438 358.425781 192.152344 356.554688 191.09375 C 354.433594 189.78125 351.289062 188.039062 347.328125 186.136719 C 339.347656 182.332031 327.972656 178.28125 314.289062 177.222656 C 300.640625 176.039062 284.710938 177.96875 267.632812 182.894531 C 263.359375 184.140625 259.03125 185.480469 254.636719 186.976562 C 250.242188 188.503906 245.78125 190.15625 241.296875 191.871094 C 232.351562 195.332031 223.25 199.070312 214.117188 202.839844 C 205.015625 206.488281 195.914062 210.167969 186.9375 213.222656 C 182.480469 214.78125 178.023438 216.179688 173.628906 217.398438 C 169.234375 218.644531 164.902344 219.734375 160.632812 220.546875 C 156.488281 221.386719 152.402344 222.042969 148.414062 222.445312 C 148.414062 222.445312 148.351562 222.445312 148.257812 222.476562 C 148.039062 222.507812 147.601562 222.539062 147.007812 222.601562 C 146.636719 222.632812 146.292969 222.664062 145.917969 222.695312 C 145.328125 222.757812 144.609375 222.789062 143.832031 222.820312 C 143.269531 222.851562 142.679688 222.882812 142.023438 222.882812 C 141.464844 222.914062 140.839844 222.914062 140.214844 222.914062 C 138.875 222.945312 137.378906 222.945312 135.789062 222.882812 C 135.417969 222.882812 135.042969 222.851562 134.667969 222.851562 C 134.046875 222.820312 133.421875 222.789062 132.765625 222.757812 C 132.207031 222.726562 131.613281 222.695312 131.050781 222.664062 C 130.085938 222.570312 129.121094 222.507812 128.09375 222.382812 C 125.628906 222.167969 123.011719 221.824219 120.238281 221.324219 C 118.335938 221.011719 116.371094 220.640625 114.347656 220.171875 C 112.945312 219.859375 111.511719 219.515625 110.046875 219.109375 C 109.980469 219.109375 109.953125 219.109375 109.921875 219.082031 C 85.859375 212.691406 55.59375 196.296875 34.742188 155.496094 C 36.707031 158.519531 67.15625 204.183594 117.554688 209.199219 C 130.398438 209.824219 145.046875 207.828125 160.632812 203.339844 C 161.222656 203.152344 161.816406 202.996094 162.410156 202.8125 C 166.085938 201.71875 169.855469 200.535156 173.628906 199.226562 C 178.023438 197.699219 182.480469 196.046875 186.9375 194.363281 C 195.914062 190.871094 205.015625 187.132812 214.117188 183.363281 C 223.25 179.714844 232.351562 176.003906 241.296875 172.980469 C 245.78125 171.394531 250.242188 169.992188 254.636719 168.777344 C 259.03125 167.527344 263.359375 166.4375 267.632812 165.597656 C 284.710938 162.105469 300.640625 162.324219 314.289062 165.9375 C 327.972656 169.429688 339.347656 176.195312 347.328125 182.207031 C 351.289062 185.199219 354.433594 188.039062 356.554688 189.96875 C 358.425781 191.683594 359.484375 192.773438 359.765625 193.054688 " fill-opacity="1" fill-rule="nonzero"/>
  </g>
  <g clip-path="url(#b45b05d3be)">
    <path fill="#b4b4b4" d="M 36.253906 137.714844 C 36.253906 137.714844 36.636719 138.234375 37.351562 139.207031 C 38.058594 140.1875 39.121094 141.625 40.5 143.386719 C 43.230469 146.933594 47.304688 151.882812 52.648438 157.304688 C 55.289062 160.046875 58.371094 162.785156 61.609375 165.664062 C 64.933594 168.457031 68.550781 171.246094 72.398438 173.96875 C 76.269531 176.660156 80.449219 179.144531 84.757812 181.535156 C 89.148438 183.90625 93.558594 185.894531 98.382812 187.691406 C 102.898438 189.394531 107.773438 190.695312 112.550781 191.636719 C 117.363281 192.496094 122.164062 193.074219 126.855469 193.296875 C 131.542969 193.417969 136.105469 193.414062 140.4375 193.109375 C 144.765625 192.792969 148.867188 192.359375 152.648438 191.828125 C 160.207031 190.730469 166.511719 189.496094 170.917969 188.578125 C 175.335938 187.667969 177.863281 187.148438 177.863281 187.148438 C 177.863281 187.148438 177.265625 187.390625 176.140625 187.84375 C 175.015625 188.28125 173.394531 189.003906 171.261719 189.769531 C 167.03125 191.359375 160.910156 193.492188 153.324219 195.34375 C 149.535156 196.277344 145.375 197.140625 140.914062 197.738281 C 136.457031 198.371094 131.695312 198.757812 126.742188 198.785156 C 121.796875 198.714844 116.648438 198.480469 111.488281 197.5625 C 106.328125 196.613281 101.210938 195.351562 96.078125 193.480469 C 91.289062 191.625 86.332031 189.316406 81.855469 186.800781 C 77.324219 184.257812 73.117188 181.339844 69.171875 178.390625 C 61.339844 172.386719 54.871094 165.796875 49.988281 159.675781 C 45.042969 153.597656 41.644531 148.035156 39.460938 144.054688 C 38.320312 142.085938 37.601562 140.46875 37.066406 139.382812 C 36.535156 138.292969 36.253906 137.714844 36.253906 137.714844 " fill-opacity="1" fill-rule="nonzero"/>
  </g>
  <path fill="#27a650" d="M 142.023438 222.882812 C 141.085938 222.914062 140.027344 222.945312 138.90625 222.945312 L 138.597656 222.945312 C 137.722656 222.945312 136.789062 222.914062 135.789062 222.882812 C 137.378906 222.945312 138.875 222.945312 140.214844 222.914062 C 140.839844 222.914062 141.464844 222.914062 142.023438 222.882812 " fill-opacity="1" fill-rule="nonzero"/>
  <path fill="#27a650" d="M 140.214844 222.914062 C 139.78125 222.914062 139.34375 222.945312 138.90625 222.945312 L 138.597656 222.945312 C 129.835938 223.132812 121.515625 222.230469 113.941406 220.234375 C 112.632812 219.890625 111.324219 219.515625 110.046875 219.109375 C 111.511719 219.515625 112.945312 219.859375 114.347656 220.171875 C 116.371094 220.640625 118.335938 221.011719 120.238281 221.324219 C 123.011719 221.824219 125.628906 222.167969 128.09375 222.382812 C 129.089844 222.507812 130.085938 222.570312 131.050781 222.664062 C 131.613281 222.695312 132.207031 222.726562 132.765625 222.757812 C 133.421875 222.789062 134.046875 222.820312 134.667969 222.851562 C 135.042969 222.851562 135.417969 222.882812 135.789062 222.882812 C 137.378906 222.945312 138.875 222.945312 140.214844 222.914062 " fill-opacity="1" fill-rule="nonzero"/>
  <g transform="matrix(1, 0, 0, 1, 0, 147)">
    <g clip-path="url(#24e3f0ff4a)">
      <g fill="#27a650" fill-opacity="1">
        <g transform="translate(5.181664, 57.122556)">
          <g>
            <path d="M 4.546875 5.546875 C 4.398438 5.179688 4.367188 4.890625 4.453125 4.671875 C 4.535156 4.453125 4.675781 4.269531 4.875 4.125 C 4.925781 4.09375 4.957031 4.070312 4.96875 4.0625 C 4.988281 4.0625 5.023438 4.039062 5.078125 4 C 6.804688 2.90625 8.625 1.769531 10.53125 0.59375 C 12.4375 -0.570312 14.378906 -1.757812 16.359375 -2.96875 C 18.347656 -4.175781 20.328125 -5.378906 22.296875 -6.578125 C 24.273438 -7.785156 26.203125 -8.953125 28.078125 -10.078125 L 28.0625 -10.078125 C 28.007812 -10.148438 27.828125 -10.289062 27.515625 -10.5 C 27.210938 -10.707031 26.875 -10.945312 26.5 -11.21875 C 26.125 -11.488281 25.753906 -11.769531 25.390625 -12.0625 C 25.035156 -12.363281 24.773438 -12.628906 24.609375 -12.859375 C 24.460938 -13.054688 24.429688 -13.253906 24.515625 -13.453125 C 24.609375 -13.648438 24.742188 -13.8125 24.921875 -13.9375 C 25.066406 -14.039062 25.21875 -14.117188 25.375 -14.171875 C 26.875 -14.628906 28.300781 -15.019531 29.65625 -15.34375 C 31.007812 -15.664062 32.394531 -16.007812 33.8125 -16.375 C 35.289062 -15.675781 36.71875 -14.875 38.09375 -13.96875 C 39.46875 -13.070312 40.78125 -12.101562 42.03125 -11.0625 C 43.289062 -10.019531 44.460938 -8.925781 45.546875 -7.78125 C 46.628906 -6.632812 47.609375 -5.472656 48.484375 -4.296875 C 49.710938 -2.628906 50.691406 -0.9375 51.421875 0.78125 C 52.148438 2.507812 52.5625 4.175781 52.65625 5.78125 C 52.75 7.394531 52.488281 8.910156 51.875 10.328125 C 51.269531 11.753906 50.25 13 48.8125 14.0625 C 48.1875 14.519531 47.484375 14.820312 46.703125 14.96875 C 45.921875 15.125 45.109375 15.175781 44.265625 15.125 C 43.421875 15.082031 42.578125 14.957031 41.734375 14.75 C 40.898438 14.550781 40.113281 14.328125 39.375 14.078125 C 39.375 15.203125 39.375 16.21875 39.375 17.125 C 39.375 18.03125 39.285156 18.863281 39.109375 19.625 C 38.941406 20.382812 38.644531 21.082031 38.21875 21.71875 C 37.789062 22.363281 37.160156 23 36.328125 23.625 C 35.054688 24.5625 33.675781 25.234375 32.1875 25.640625 C 30.695312 26.046875 29.160156 26.222656 27.578125 26.171875 C 26.003906 26.117188 24.414062 25.851562 22.8125 25.375 C 21.21875 24.894531 19.671875 24.238281 18.171875 23.40625 C 16.679688 22.570312 15.269531 21.578125 13.9375 20.421875 C 12.601562 19.265625 11.414062 17.976562 10.375 16.5625 C 9.988281 16.039062 9.53125 15.304688 9 14.359375 C 8.46875 13.421875 7.925781 12.421875 7.375 11.359375 C 6.820312 10.296875 6.289062 9.242188 5.78125 8.203125 C 5.28125 7.160156 4.867188 6.273438 4.546875 5.546875 Z M 37.3125 -2.375 C 35.289062 -1.34375 33.285156 -0.25 31.296875 0.90625 C 29.316406 2.070312 27.398438 3.222656 25.546875 4.359375 C 23.703125 5.503906 21.957031 6.597656 20.3125 7.640625 C 18.664062 8.691406 17.1875 9.625 15.875 10.4375 C 16.332031 11.039062 16.851562 11.671875 17.4375 12.328125 C 18.019531 12.984375 18.65625 13.597656 19.34375 14.171875 C 20.03125 14.742188 20.75 15.257812 21.5 15.71875 C 22.25 16.1875 23.003906 16.523438 23.765625 16.734375 C 24.535156 16.953125 25.300781 17.015625 26.0625 16.921875 C 26.832031 16.828125 27.566406 16.523438 28.265625 16.015625 C 28.691406 15.703125 28.96875 15.289062 29.09375 14.78125 C 29.226562 14.28125 29.265625 13.742188 29.203125 13.171875 C 29.148438 12.597656 29.019531 12.007812 28.8125 11.40625 C 28.613281 10.800781 28.394531 10.226562 28.15625 9.6875 C 27.914062 9.144531 27.675781 8.660156 27.4375 8.234375 C 27.207031 7.816406 27.035156 7.5 26.921875 7.28125 C 26.804688 7.039062 26.785156 6.84375 26.859375 6.6875 C 26.941406 6.539062 27.070312 6.40625 27.25 6.28125 C 27.445312 6.132812 27.832031 6.035156 28.40625 5.984375 C 28.976562 5.941406 29.765625 5.875 30.765625 5.78125 L 32.984375 5.609375 C 33.441406 5.921875 33.960938 6.226562 34.546875 6.53125 C 35.128906 6.84375 35.71875 7.09375 36.3125 7.28125 C 36.90625 7.476562 37.488281 7.578125 38.0625 7.578125 C 38.644531 7.585938 39.160156 7.425781 39.609375 7.09375 C 40.847656 6.1875 41.597656 5.21875 41.859375 4.1875 C 42.117188 3.15625 41.875 2.128906 41.125 1.109375 C 40.28125 -0.046875 39.007812 -1.207031 37.3125 -2.375 Z M 37.3125 -2.375 "/>
          </g>
        </g>
      </g>
      <g fill="#27a650" fill-opacity="1">
        <g transform="translate(30.413027, 90.415747)">
          <g>
            <path d="M 36.15625 -10.171875 C 37.488281 -8.984375 38.476562 -7.648438 39.125 -6.171875 C 39.78125 -4.691406 40.144531 -3.207031 40.21875 -1.71875 C 40.289062 -0.226562 40.097656 1.191406 39.640625 2.546875 C 39.191406 3.910156 38.53125 5.085938 37.65625 6.078125 C 36.875 6.960938 35.820312 7.609375 34.5 8.015625 C 33.1875 8.421875 31.726562 8.546875 30.125 8.390625 C 28.53125 8.242188 26.863281 7.785156 25.125 7.015625 C 23.382812 6.253906 21.703125 5.148438 20.078125 3.703125 C 19.234375 2.960938 18.414062 2.085938 17.625 1.078125 C 17.15625 1.734375 16.875 2.410156 16.78125 3.109375 C 16.6875 3.804688 16.738281 4.5 16.9375 5.1875 C 17.132812 5.875 17.457031 6.535156 17.90625 7.171875 C 18.363281 7.816406 18.898438 8.40625 19.515625 8.9375 C 20.191406 9.539062 20.894531 10.0625 21.625 10.5 C 22.351562 10.945312 23.09375 11.328125 23.84375 11.640625 C 24.601562 11.960938 25.359375 12.238281 26.109375 12.46875 C 26.867188 12.707031 27.59375 12.914062 28.28125 13.09375 C 28.4375 13.1875 28.566406 13.257812 28.671875 13.3125 C 28.785156 13.375 28.882812 13.441406 28.96875 13.515625 C 28.96875 13.515625 28.863281 13.625 28.65625 13.84375 C 28.445312 14.070312 28.160156 14.390625 27.796875 14.796875 C 27.441406 15.203125 27.003906 15.691406 26.484375 16.265625 C 25.960938 16.847656 25.378906 17.488281 24.734375 18.1875 C 24.703125 18.28125 24.660156 18.367188 24.609375 18.453125 C 24.566406 18.546875 24.53125 18.613281 24.5 18.65625 C 24.34375 18.820312 24.019531 18.863281 23.53125 18.78125 C 23.039062 18.707031 22.453125 18.550781 21.765625 18.3125 C 21.085938 18.082031 20.335938 17.78125 19.515625 17.40625 C 18.703125 17.03125 17.890625 16.628906 17.078125 16.203125 C 16.273438 15.785156 15.523438 15.34375 14.828125 14.875 C 14.128906 14.414062 13.546875 13.976562 13.078125 13.5625 C 11.546875 12.207031 10.296875 10.628906 9.328125 8.828125 C 8.367188 7.035156 7.769531 5.148438 7.53125 3.171875 C 7.300781 1.191406 7.484375 -0.789062 8.078125 -2.78125 C 8.671875 -4.78125 9.753906 -6.664062 11.328125 -8.4375 C 12.960938 -10.28125 14.816406 -11.726562 16.890625 -12.78125 C 18.960938 -13.832031 21.101562 -14.445312 23.3125 -14.625 C 25.53125 -14.8125 27.742188 -14.539062 29.953125 -13.8125 C 32.160156 -13.09375 34.226562 -11.878906 36.15625 -10.171875 Z M 30.890625 -4.765625 C 30.316406 -5.273438 29.675781 -5.617188 28.96875 -5.796875 C 28.257812 -5.984375 27.5 -6.023438 26.6875 -5.921875 C 25.875 -5.828125 25.035156 -5.585938 24.171875 -5.203125 C 23.304688 -4.828125 22.441406 -4.335938 21.578125 -3.734375 C 23.242188 -2.691406 24.679688 -1.882812 25.890625 -1.3125 C 27.109375 -0.738281 28.132812 -0.34375 28.96875 -0.125 C 29.800781 0.09375 30.46875 0.160156 30.96875 0.078125 C 31.46875 0.00390625 31.832031 -0.160156 32.0625 -0.421875 C 32.289062 -0.679688 32.410156 -1.003906 32.421875 -1.390625 C 32.441406 -1.785156 32.382812 -2.191406 32.25 -2.609375 C 32.113281 -3.023438 31.921875 -3.425781 31.671875 -3.8125 C 31.421875 -4.207031 31.160156 -4.523438 30.890625 -4.765625 Z M 30.890625 -4.765625 "/>
          </g>
        </g>
      </g>
      <g fill="#27a650" fill-opacity="1">
        <g transform="translate(55.339398, 112.755147)">
          <g>
            <path d="M 29.5625 -1.46875 C 29.914062 -1.96875 30.285156 -2.484375 30.671875 -3.015625 C 31.066406 -3.554688 31.488281 -4.117188 31.9375 -4.703125 C 32.113281 -5.898438 32.039062 -7 31.71875 -8 C 31.394531 -9.007812 30.71875 -9.8125 29.6875 -10.40625 C 28.675781 -11 27.648438 -11.207031 26.609375 -11.03125 C 25.566406 -10.863281 24.585938 -10.476562 23.671875 -9.875 C 22.753906 -9.269531 21.925781 -8.550781 21.1875 -7.71875 C 20.457031 -6.882812 19.882812 -6.109375 19.46875 -5.390625 C 18.957031 -4.515625 18.503906 -3.609375 18.109375 -2.671875 C 17.710938 -1.742188 17.429688 -0.863281 17.265625 -0.03125 C 17.097656 0.800781 17.082031 1.550781 17.21875 2.21875 C 17.363281 2.882812 17.726562 3.382812 18.3125 3.71875 C 19.78125 4.488281 21.140625 4.832031 22.390625 4.75 C 23.640625 4.675781 24.785156 4.363281 25.828125 3.8125 Z M 31.46875 14.953125 C 31.445312 14.984375 31.414062 15.015625 31.375 15.046875 C 31.34375 15.085938 31.320312 15.125 31.3125 15.15625 C 31.257812 15.226562 31.222656 15.289062 31.203125 15.34375 C 31.191406 15.40625 31.171875 15.460938 31.140625 15.515625 C 31.054688 15.660156 30.9375 15.742188 30.78125 15.765625 C 30.625 15.796875 30.289062 15.742188 29.78125 15.609375 L 21.96875 13.921875 C 21.75 13.890625 21.46875 13.832031 21.125 13.75 C 20.78125 13.675781 20.46875 13.5625 20.1875 13.40625 C 19.957031 13.269531 19.785156 13.097656 19.671875 12.890625 C 19.566406 12.679688 19.609375 12.414062 19.796875 12.09375 C 19.960938 11.8125 20.097656 11.582031 20.203125 11.40625 C 20.316406 11.226562 20.425781 11.0625 20.53125 10.90625 C 20.632812 10.757812 20.75 10.601562 20.875 10.4375 C 21 10.28125 21.164062 10.0625 21.375 9.78125 C 19.570312 10.050781 17.851562 10.097656 16.21875 9.921875 C 14.582031 9.753906 13.050781 9.257812 11.625 8.4375 C 10.050781 7.519531 8.867188 6.335938 8.078125 4.890625 C 7.296875 3.441406 6.851562 1.851562 6.75 0.125 C 6.644531 -1.601562 6.835938 -3.394531 7.328125 -5.25 C 7.828125 -7.113281 8.582031 -8.921875 9.59375 -10.671875 C 10.90625 -12.941406 12.472656 -14.796875 14.296875 -16.234375 C 16.128906 -17.679688 18.066406 -18.695312 20.109375 -19.28125 C 22.160156 -19.875 24.242188 -20.039062 26.359375 -19.78125 C 28.484375 -19.53125 30.503906 -18.847656 32.421875 -17.734375 C 33.441406 -17.140625 34.265625 -16.296875 34.890625 -15.203125 C 35.523438 -14.117188 36.015625 -12.914062 36.359375 -11.59375 C 36.867188 -12.363281 37.425781 -13.195312 38.03125 -14.09375 C 38.644531 -15 39.265625 -15.921875 39.890625 -16.859375 C 40.523438 -17.796875 41.144531 -18.71875 41.75 -19.625 C 42.363281 -20.53125 42.925781 -21.359375 43.4375 -22.109375 C 43.519531 -22.253906 43.640625 -22.34375 43.796875 -22.375 C 43.953125 -22.40625 44.285156 -22.347656 44.796875 -22.203125 L 52.640625 -19.859375 C 52.828125 -19.785156 53.101562 -19.71875 53.46875 -19.65625 C 53.832031 -19.601562 54.15625 -19.492188 54.4375 -19.328125 C 54.644531 -19.210938 54.8125 -19.050781 54.9375 -18.84375 C 55.070312 -18.632812 55.0625 -18.394531 54.90625 -18.125 C 54.882812 -18.082031 54.835938 -18.007812 54.765625 -17.90625 C 54.691406 -17.8125 54.644531 -17.75 54.625 -17.71875 Z M 31.46875 14.953125 "/>
          </g>
        </g>
      </g>
      <g fill="#27a650" fill-opacity="1">
        <g transform="translate(88.683488, 131.364671)">
          <g>
            <path d="M 6 -6.125 C 6.007812 -6.144531 6.007812 -6.160156 6 -6.171875 C 6 -6.179688 6 -6.195312 6 -6.21875 C 6.082031 -6.445312 6.25 -6.515625 6.5 -6.421875 C 6.65625 -6.367188 6.773438 -6.257812 6.859375 -6.09375 C 7.335938 -5.15625 7.953125 -4.304688 8.703125 -3.546875 C 9.453125 -2.796875 10.363281 -2.222656 11.4375 -1.828125 C 11.71875 -1.722656 12.050781 -1.628906 12.4375 -1.546875 C 12.832031 -1.472656 13.222656 -1.445312 13.609375 -1.46875 C 14.003906 -1.5 14.359375 -1.59375 14.671875 -1.75 C 14.984375 -1.90625 15.203125 -2.160156 15.328125 -2.515625 C 15.472656 -2.898438 15.507812 -3.296875 15.4375 -3.703125 C 15.363281 -4.109375 15.203125 -4.472656 14.953125 -4.796875 C 14.828125 -4.984375 14.597656 -5.3125 14.265625 -5.78125 C 13.929688 -6.25 13.578125 -6.753906 13.203125 -7.296875 C 12.828125 -7.847656 12.46875 -8.363281 12.125 -8.84375 C 11.78125 -9.320312 11.550781 -9.671875 11.4375 -9.890625 C 10.863281 -10.765625 10.453125 -11.597656 10.203125 -12.390625 C 9.960938 -13.179688 9.835938 -13.957031 9.828125 -14.71875 C 9.828125 -15.476562 9.921875 -16.234375 10.109375 -16.984375 C 10.304688 -17.742188 10.550781 -18.53125 10.84375 -19.34375 C 11.300781 -20.582031 12.0625 -21.632812 13.125 -22.5 C 14.1875 -23.363281 15.40625 -24.015625 16.78125 -24.453125 C 18.15625 -24.898438 19.613281 -25.113281 21.15625 -25.09375 C 22.695312 -25.082031 24.175781 -24.816406 25.59375 -24.296875 C 26.769531 -23.867188 27.859375 -23.269531 28.859375 -22.5 C 29.867188 -21.738281 30.707031 -20.753906 31.375 -19.546875 C 31.039062 -18.398438 30.695312 -17.273438 30.34375 -16.171875 C 30 -15.078125 29.640625 -13.925781 29.265625 -12.71875 C 29.179688 -12.476562 29.070312 -12.335938 28.9375 -12.296875 C 28.8125 -12.265625 28.675781 -12.273438 28.53125 -12.328125 C 28.40625 -12.367188 28.316406 -12.453125 28.265625 -12.578125 C 27.984375 -13.117188 27.703125 -13.65625 27.421875 -14.1875 C 27.140625 -14.71875 26.8125 -15.210938 26.4375 -15.671875 C 26.070312 -16.140625 25.65625 -16.566406 25.1875 -16.953125 C 24.726562 -17.335938 24.203125 -17.640625 23.609375 -17.859375 C 23.234375 -17.992188 22.847656 -18.097656 22.453125 -18.171875 C 22.066406 -18.242188 21.6875 -18.25 21.3125 -18.1875 C 20.945312 -18.125 20.617188 -17.984375 20.328125 -17.765625 C 20.046875 -17.554688 19.828125 -17.234375 19.671875 -16.796875 C 19.484375 -16.273438 19.378906 -15.804688 19.359375 -15.390625 C 19.347656 -14.972656 19.503906 -14.503906 19.828125 -13.984375 L 23.5625 -8.84375 C 24.238281 -7.875 24.75 -6.992188 25.09375 -6.203125 C 25.4375 -5.410156 25.660156 -4.660156 25.765625 -3.953125 C 25.867188 -3.253906 25.875 -2.59375 25.78125 -1.96875 C 25.6875 -1.34375 25.535156 -0.75 25.328125 -0.1875 C 24.742188 1.40625 23.859375 2.671875 22.671875 3.609375 C 21.492188 4.554688 20.175781 5.21875 18.71875 5.59375 C 17.257812 5.976562 15.710938 6.109375 14.078125 5.984375 C 12.453125 5.859375 10.890625 5.523438 9.390625 4.984375 C 8.253906 4.566406 7.203125 4.046875 6.234375 3.421875 C 5.273438 2.804688 4.429688 2.085938 3.703125 1.265625 Z M 6 -6.125 "/>
          </g>
        </g>
      </g>
      <g fill="#27a650" fill-opacity="1">
        <g transform="translate(111.004767, 139.338385)">
          <g>
            <path d="M 6.859375 -10.703125 C 7.691406 -13.148438 8.523438 -15.578125 9.359375 -17.984375 C 10.203125 -20.390625 11.023438 -22.863281 11.828125 -25.40625 C 12.015625 -26 12.175781 -26.398438 12.3125 -26.609375 C 12.445312 -26.816406 12.691406 -26.914062 13.046875 -26.90625 C 14.671875 -26.84375 16.378906 -26.773438 18.171875 -26.703125 C 19.960938 -26.628906 21.71875 -26.664062 23.4375 -26.8125 C 23.5 -26.820312 23.585938 -26.8125 23.703125 -26.78125 C 23.898438 -26.726562 23.976562 -26.628906 23.9375 -26.484375 L 14.984375 -0.28125 C 14.785156 0.3125 14.617188 0.710938 14.484375 0.921875 C 14.359375 1.140625 14.117188 1.242188 13.765625 1.234375 C 12.097656 1.335938 10.394531 1.488281 8.65625 1.6875 C 6.914062 1.894531 5.082031 2.078125 3.15625 2.234375 C 3.101562 2.242188 3.019531 2.234375 2.90625 2.203125 C 2.707031 2.160156 2.628906 2.050781 2.671875 1.875 C 2.679688 1.851562 2.757812 1.609375 2.90625 1.140625 C 3.050781 0.671875 3.25 0.0664062 3.5 -0.671875 C 3.75 -1.410156 4.019531 -2.234375 4.3125 -3.140625 C 4.613281 -4.054688 4.921875 -4.972656 5.234375 -5.890625 C 5.546875 -6.804688 5.84375 -7.6875 6.125 -8.53125 C 6.40625 -9.382812 6.648438 -10.109375 6.859375 -10.703125 Z M 14.234375 -32.171875 C 14.472656 -32.941406 14.65625 -33.53125 14.78125 -33.9375 C 14.90625 -34.351562 15.003906 -34.664062 15.078125 -34.875 C 15.148438 -35.082031 15.191406 -35.210938 15.203125 -35.265625 C 15.210938 -35.328125 15.226562 -35.367188 15.25 -35.390625 C 15.269531 -35.421875 15.296875 -35.472656 15.328125 -35.546875 C 15.359375 -35.628906 15.410156 -35.800781 15.484375 -36.0625 C 15.566406 -36.332031 15.691406 -36.71875 15.859375 -37.21875 C 16.023438 -37.726562 16.25 -38.414062 16.53125 -39.28125 C 16.71875 -39.882812 16.878906 -40.289062 17.015625 -40.5 C 17.148438 -40.71875 17.390625 -40.820312 17.734375 -40.8125 C 19.367188 -40.75 21.082031 -40.679688 22.875 -40.609375 C 24.664062 -40.535156 26.421875 -40.566406 28.140625 -40.703125 C 28.210938 -40.710938 28.304688 -40.703125 28.421875 -40.671875 C 28.429688 -40.546875 28.484375 -40.457031 28.578125 -40.40625 L 28.65625 -40.34375 L 26.21875 -32.921875 C 26.007812 -32.328125 25.832031 -31.921875 25.6875 -31.703125 C 25.550781 -31.484375 25.320312 -31.390625 25 -31.421875 C 23.363281 -31.503906 21.707031 -31.5625 20.03125 -31.59375 C 18.351562 -31.632812 16.582031 -31.695312 14.71875 -31.78125 C 14.65625 -31.78125 14.570312 -31.789062 14.46875 -31.8125 C 14.269531 -31.863281 14.191406 -31.984375 14.234375 -32.171875 Z M 14.234375 -32.171875 "/>
          </g>
        </g>
      </g>
      <g fill="#27a650" fill-opacity="1">
        <g transform="translate(127.876923, 144.209336)">
          <g>
            <path d="M 26.09375 -13.96875 C 26.195312 -14.570312 26.3125 -15.203125 26.4375 -15.859375 C 26.5625 -16.515625 26.695312 -17.191406 26.84375 -17.890625 C 26.507812 -19.054688 25.976562 -20.023438 25.25 -20.796875 C 24.519531 -21.578125 23.5625 -22.019531 22.375 -22.125 C 21.207031 -22.21875 20.1875 -21.960938 19.3125 -21.359375 C 18.445312 -20.753906 17.726562 -19.984375 17.15625 -19.046875 C 16.59375 -18.117188 16.15625 -17.117188 15.84375 -16.046875 C 15.539062 -14.972656 15.351562 -14.023438 15.28125 -13.203125 C 15.195312 -12.191406 15.175781 -11.179688 15.21875 -10.171875 C 15.257812 -9.160156 15.382812 -8.238281 15.59375 -7.40625 C 15.800781 -6.582031 16.109375 -5.898438 16.515625 -5.359375 C 16.921875 -4.828125 17.460938 -4.53125 18.140625 -4.46875 C 19.785156 -4.394531 21.160156 -4.660156 22.265625 -5.265625 C 23.367188 -5.867188 24.273438 -6.644531 24.984375 -7.59375 Z M 34.828125 0.0625 C 34.828125 0.101562 34.816406 0.144531 34.796875 0.1875 C 34.785156 0.238281 34.78125 0.28125 34.78125 0.3125 C 34.769531 0.40625 34.765625 0.476562 34.765625 0.53125 C 34.773438 0.59375 34.78125 0.648438 34.78125 0.703125 C 34.757812 0.867188 34.6875 1 34.5625 1.09375 C 34.4375 1.1875 34.113281 1.28125 33.59375 1.375 L 25.828125 3.1875 C 25.609375 3.25 25.320312 3.320312 24.96875 3.40625 C 24.625 3.488281 24.296875 3.515625 23.984375 3.484375 C 23.722656 3.460938 23.492188 3.378906 23.296875 3.234375 C 23.109375 3.085938 23.03125 2.832031 23.0625 2.46875 C 23.09375 2.132812 23.117188 1.863281 23.140625 1.65625 C 23.171875 1.445312 23.195312 1.25 23.21875 1.0625 C 23.25 0.882812 23.285156 0.695312 23.328125 0.5 C 23.378906 0.300781 23.4375 0.0351562 23.5 -0.296875 C 21.988281 0.710938 20.457031 1.492188 18.90625 2.046875 C 17.351562 2.597656 15.753906 2.800781 14.109375 2.65625 C 12.296875 2.507812 10.722656 1.945312 9.390625 0.96875 C 8.054688 -0.0078125 6.972656 -1.253906 6.140625 -2.765625 C 5.304688 -4.285156 4.71875 -5.992188 4.375 -7.890625 C 4.03125 -9.785156 3.941406 -11.738281 4.109375 -13.75 C 4.328125 -16.363281 4.953125 -18.710938 5.984375 -20.796875 C 7.023438 -22.878906 8.34375 -24.625 9.9375 -26.03125 C 11.539062 -27.4375 13.351562 -28.476562 15.375 -29.15625 C 17.394531 -29.832031 19.507812 -30.082031 21.71875 -29.90625 C 22.894531 -29.800781 24 -29.390625 25.03125 -28.671875 C 26.070312 -27.960938 27.023438 -27.082031 27.890625 -26.03125 C 28.035156 -26.9375 28.1875 -27.925781 28.34375 -29 C 28.507812 -30.082031 28.675781 -31.179688 28.84375 -32.296875 C 29.019531 -33.410156 29.191406 -34.507812 29.359375 -35.59375 C 29.523438 -36.675781 29.675781 -37.664062 29.8125 -38.5625 C 29.820312 -38.726562 29.890625 -38.859375 30.015625 -38.953125 C 30.148438 -39.046875 30.476562 -39.140625 31 -39.234375 L 39.09375 -40.453125 C 39.300781 -40.472656 39.582031 -40.53125 39.9375 -40.625 C 40.289062 -40.726562 40.628906 -40.769531 40.953125 -40.75 C 41.191406 -40.726562 41.410156 -40.648438 41.609375 -40.515625 C 41.816406 -40.390625 41.90625 -40.164062 41.875 -39.84375 C 41.875 -39.800781 41.863281 -39.722656 41.84375 -39.609375 C 41.820312 -39.492188 41.8125 -39.414062 41.8125 -39.375 Z M 34.828125 0.0625 "/>
          </g>
        </g>
      </g>
      <g fill="#27a650" fill-opacity="1">
        <g transform="translate(166.485846, 147.074844)">
          <g>
            <path d="M 16.453125 -33.75 C 18.234375 -33.957031 19.890625 -33.8125 21.421875 -33.3125 C 22.953125 -32.820312 24.300781 -32.109375 25.46875 -31.171875 C 26.632812 -30.234375 27.578125 -29.140625 28.296875 -27.890625 C 29.015625 -26.648438 29.445312 -25.375 29.59375 -24.0625 C 29.738281 -22.894531 29.519531 -21.679688 28.9375 -20.421875 C 28.363281 -19.171875 27.488281 -18 26.3125 -16.90625 C 25.144531 -15.820312 23.691406 -14.882812 21.953125 -14.09375 C 20.222656 -13.300781 18.273438 -12.773438 16.109375 -12.515625 C 14.992188 -12.390625 13.804688 -12.367188 12.546875 -12.453125 C 12.710938 -11.660156 13.023438 -10.992188 13.484375 -10.453125 C 13.941406 -9.921875 14.492188 -9.5 15.140625 -9.1875 C 15.785156 -8.882812 16.5 -8.6875 17.28125 -8.59375 C 18.0625 -8.507812 18.851562 -8.515625 19.65625 -8.609375 C 20.550781 -8.710938 21.40625 -8.890625 22.21875 -9.140625 C 23.039062 -9.398438 23.820312 -9.707031 24.5625 -10.0625 C 25.300781 -10.414062 26.007812 -10.796875 26.6875 -11.203125 C 27.363281 -11.609375 28 -12.007812 28.59375 -12.40625 C 28.769531 -12.457031 28.914062 -12.503906 29.03125 -12.546875 C 29.144531 -12.585938 29.257812 -12.617188 29.375 -12.640625 C 29.375 -12.640625 29.382812 -12.484375 29.40625 -12.171875 C 29.4375 -11.867188 29.484375 -11.445312 29.546875 -10.90625 C 29.609375 -10.363281 29.679688 -9.707031 29.765625 -8.9375 C 29.847656 -8.164062 29.9375 -7.3125 30.03125 -6.375 C 30.09375 -6.289062 30.140625 -6.203125 30.171875 -6.109375 C 30.203125 -6.015625 30.222656 -5.941406 30.234375 -5.890625 C 30.253906 -5.660156 30.070312 -5.390625 29.6875 -5.078125 C 29.300781 -4.765625 28.789062 -4.429688 28.15625 -4.078125 C 27.519531 -3.722656 26.789062 -3.359375 25.96875 -2.984375 C 25.144531 -2.617188 24.304688 -2.273438 23.453125 -1.953125 C 22.597656 -1.640625 21.765625 -1.375 20.953125 -1.15625 C 20.148438 -0.945312 19.441406 -0.804688 18.828125 -0.734375 C 16.796875 -0.492188 14.785156 -0.613281 12.796875 -1.09375 C 10.816406 -1.570312 9.015625 -2.378906 7.390625 -3.515625 C 5.765625 -4.648438 4.398438 -6.101562 3.296875 -7.875 C 2.191406 -9.65625 1.503906 -11.71875 1.234375 -14.0625 C 0.941406 -16.507812 1.09375 -18.859375 1.6875 -21.109375 C 2.28125 -23.359375 3.25 -25.367188 4.59375 -27.140625 C 5.9375 -28.910156 7.609375 -30.378906 9.609375 -31.546875 C 11.617188 -32.722656 13.898438 -33.457031 16.453125 -33.75 Z M 16.984375 -26.234375 C 16.222656 -26.140625 15.539062 -25.890625 14.9375 -25.484375 C 14.332031 -25.085938 13.796875 -24.550781 13.328125 -23.875 C 12.859375 -23.195312 12.476562 -22.410156 12.1875 -21.515625 C 11.894531 -20.617188 11.6875 -19.644531 11.5625 -18.59375 C 13.457031 -19.144531 15.019531 -19.679688 16.25 -20.203125 C 17.476562 -20.734375 18.453125 -21.234375 19.171875 -21.703125 C 19.898438 -22.179688 20.398438 -22.632812 20.671875 -23.0625 C 20.953125 -23.488281 21.070312 -23.878906 21.03125 -24.234375 C 20.988281 -24.566406 20.820312 -24.867188 20.53125 -25.140625 C 20.238281 -25.410156 19.890625 -25.632812 19.484375 -25.8125 C 19.085938 -26 18.660156 -26.125 18.203125 -26.1875 C 17.742188 -26.257812 17.335938 -26.273438 16.984375 -26.234375 Z M 16.984375 -26.234375 "/>
          </g>
        </g>
      </g>
    </g>
  </g>
  <g transform="matrix(1, 0, 0, 1, 182, 171)">
    <g clip-path="url(#677af10e0c)">
      <g fill="#27a650" fill-opacity="1">
        <g transform="translate(31.636596, 117.174453)">
          <g>
            <path d="M 6.25 -3.53125 C 5.863281 -3.445312 5.566406 -3.460938 5.359375 -3.578125 C 5.148438 -3.703125 4.992188 -3.867188 4.890625 -4.078125 C 4.859375 -4.140625 4.84375 -4.175781 4.84375 -4.1875 C 4.851562 -4.207031 4.84375 -4.25 4.8125 -4.3125 C 4.039062 -6.195312 3.238281 -8.179688 2.40625 -10.265625 C 1.570312 -12.347656 0.734375 -14.46875 -0.109375 -16.625 C -0.953125 -18.789062 -1.796875 -20.945312 -2.640625 -23.09375 C -3.484375 -25.25 -4.296875 -27.347656 -5.078125 -29.390625 L -5.09375 -29.375 C -5.164062 -29.34375 -5.328125 -29.191406 -5.578125 -28.921875 C -5.835938 -28.660156 -6.132812 -28.367188 -6.46875 -28.046875 C -6.800781 -27.722656 -7.144531 -27.40625 -7.5 -27.09375 C -7.863281 -26.789062 -8.175781 -26.578125 -8.4375 -26.453125 C -8.65625 -26.347656 -8.851562 -26.359375 -9.03125 -26.484375 C -9.207031 -26.609375 -9.34375 -26.769531 -9.4375 -26.96875 C -9.519531 -27.125 -9.566406 -27.28125 -9.578125 -27.4375 C -9.773438 -28.988281 -9.914062 -30.457031 -10 -31.84375 C -10.082031 -33.238281 -10.179688 -34.664062 -10.296875 -36.125 C -9.359375 -37.46875 -8.320312 -38.738281 -7.1875 -39.9375 C -6.0625 -41.132812 -4.878906 -42.257812 -3.640625 -43.3125 C -2.398438 -44.363281 -1.125 -45.328125 0.1875 -46.203125 C 1.5 -47.078125 2.8125 -47.84375 4.125 -48.5 C 5.976562 -49.414062 7.816406 -50.082031 9.640625 -50.5 C 11.472656 -50.925781 13.1875 -51.050781 14.78125 -50.875 C 16.382812 -50.695312 17.832031 -50.179688 19.125 -49.328125 C 20.414062 -48.472656 21.457031 -47.242188 22.25 -45.640625 C 22.59375 -44.953125 22.773438 -44.210938 22.796875 -43.421875 C 22.816406 -42.628906 22.726562 -41.820312 22.53125 -41 C 22.34375 -40.175781 22.078125 -39.367188 21.734375 -38.578125 C 21.390625 -37.785156 21.023438 -37.039062 20.640625 -36.34375 C 21.753906 -36.15625 22.757812 -35.984375 23.65625 -35.828125 C 24.550781 -35.671875 25.351562 -35.441406 26.0625 -35.140625 C 26.78125 -34.847656 27.421875 -34.4375 27.984375 -33.90625 C 28.546875 -33.375 29.0625 -32.644531 29.53125 -31.71875 C 30.226562 -30.300781 30.648438 -28.820312 30.796875 -27.28125 C 30.941406 -25.738281 30.851562 -24.195312 30.53125 -22.65625 C 30.21875 -21.113281 29.6875 -19.597656 28.9375 -18.109375 C 28.1875 -16.617188 27.269531 -15.207031 26.1875 -13.875 C 25.113281 -12.539062 23.890625 -11.316406 22.515625 -10.203125 C 21.148438 -9.097656 19.675781 -8.15625 18.09375 -7.375 C 17.519531 -7.082031 16.722656 -6.753906 15.703125 -6.390625 C 14.679688 -6.023438 13.597656 -5.660156 12.453125 -5.296875 C 11.316406 -4.941406 10.191406 -4.601562 9.078125 -4.28125 C 7.960938 -3.96875 7.019531 -3.71875 6.25 -3.53125 Z M 4.078125 -37.15625 C 4.765625 -35 5.507812 -32.84375 6.3125 -30.6875 C 7.113281 -28.53125 7.914062 -26.441406 8.71875 -24.421875 C 9.519531 -22.398438 10.289062 -20.488281 11.03125 -18.6875 C 11.78125 -16.882812 12.441406 -15.269531 13.015625 -13.84375 C 13.691406 -14.1875 14.398438 -14.585938 15.140625 -15.046875 C 15.878906 -15.515625 16.59375 -16.035156 17.28125 -16.609375 C 17.976562 -17.191406 18.617188 -17.8125 19.203125 -18.46875 C 19.785156 -19.125 20.25 -19.804688 20.59375 -20.515625 C 20.9375 -21.234375 21.125 -21.976562 21.15625 -22.75 C 21.195312 -23.53125 21.023438 -24.304688 20.640625 -25.078125 C 20.398438 -25.554688 20.046875 -25.90625 19.578125 -26.125 C 19.117188 -26.34375 18.597656 -26.46875 18.015625 -26.5 C 17.441406 -26.539062 16.835938 -26.515625 16.203125 -26.421875 C 15.578125 -26.335938 14.972656 -26.21875 14.390625 -26.0625 C 13.816406 -25.914062 13.300781 -25.765625 12.84375 -25.609375 C 12.394531 -25.453125 12.050781 -25.34375 11.8125 -25.28125 C 11.550781 -25.1875 11.351562 -25.191406 11.21875 -25.296875 C 11.09375 -25.398438 10.984375 -25.550781 10.890625 -25.75 C 10.773438 -25.96875 10.742188 -26.363281 10.796875 -26.9375 C 10.847656 -27.519531 10.914062 -28.304688 11 -29.296875 L 11.21875 -31.515625 C 11.59375 -31.910156 11.984375 -32.367188 12.390625 -32.890625 C 12.796875 -33.421875 13.144531 -33.957031 13.4375 -34.5 C 13.726562 -35.050781 13.921875 -35.613281 14.015625 -36.1875 C 14.117188 -36.757812 14.050781 -37.289062 13.8125 -37.78125 C 13.125 -39.164062 12.296875 -40.070312 11.328125 -40.5 C 10.359375 -40.9375 9.304688 -40.875 8.171875 -40.3125 C 6.890625 -39.675781 5.523438 -38.625 4.078125 -37.15625 Z M 4.078125 -37.15625 "/>
          </g>
        </g>
      </g>
      <g fill="#27a650" fill-opacity="1">
        <g transform="translate(64.219967, 101.257363)">
          <g>
            <path d="M -0.71875 -12.6875 C -1.46875 -15.164062 -2.207031 -17.625 -2.9375 -20.0625 C -3.675781 -22.5 -4.457031 -24.984375 -5.28125 -27.515625 C -5.488281 -28.109375 -5.597656 -28.53125 -5.609375 -28.78125 C -5.617188 -29.03125 -5.476562 -29.257812 -5.1875 -29.46875 C -3.820312 -30.363281 -2.390625 -31.300781 -0.890625 -32.28125 C 0.597656 -33.269531 2.003906 -34.332031 3.328125 -35.46875 C 3.359375 -35.507812 3.425781 -35.550781 3.53125 -35.59375 C 3.726562 -35.675781 3.851562 -35.644531 3.90625 -35.5 L 11.984375 -9 C 12.171875 -8.394531 12.273438 -7.96875 12.296875 -7.71875 C 12.316406 -7.476562 12.175781 -7.257812 11.875 -7.0625 C 10.582031 -6 9.289062 -4.875 8 -3.6875 C 6.707031 -2.507812 5.332031 -1.289062 3.875 -0.03125 C 3.832031 0.0078125 3.757812 0.0507812 3.65625 0.09375 C 3.46875 0.175781 3.335938 0.128906 3.265625 -0.046875 C 3.253906 -0.0546875 3.171875 -0.296875 3.015625 -0.765625 C 2.859375 -1.242188 2.664062 -1.851562 2.4375 -2.59375 C 2.207031 -3.332031 1.941406 -4.160156 1.640625 -5.078125 C 1.347656 -5.992188 1.0625 -6.914062 0.78125 -7.84375 C 0.507812 -8.769531 0.238281 -9.65625 -0.03125 -10.5 C -0.300781 -11.351562 -0.53125 -12.082031 -0.71875 -12.6875 Z M -7.296875 -34.40625 C -7.546875 -35.1875 -7.742188 -35.773438 -7.890625 -36.171875 C -8.035156 -36.578125 -8.140625 -36.882812 -8.203125 -37.09375 C -8.265625 -37.3125 -8.304688 -37.445312 -8.328125 -37.5 C -8.347656 -37.5625 -8.359375 -37.601562 -8.359375 -37.625 C -8.359375 -37.65625 -8.367188 -37.710938 -8.390625 -37.796875 C -8.410156 -37.878906 -8.460938 -38.050781 -8.546875 -38.3125 C -8.640625 -38.570312 -8.765625 -38.953125 -8.921875 -39.453125 C -9.085938 -39.960938 -9.3125 -40.65625 -9.59375 -41.53125 C -9.800781 -42.113281 -9.910156 -42.535156 -9.921875 -42.796875 C -9.929688 -43.054688 -9.789062 -43.28125 -9.5 -43.46875 C -8.144531 -44.375 -6.71875 -45.320312 -5.21875 -46.3125 C -3.71875 -47.300781 -2.316406 -48.351562 -1.015625 -49.46875 C -0.960938 -49.519531 -0.882812 -49.566406 -0.78125 -49.609375 C -0.6875 -49.523438 -0.59375 -49.484375 -0.5 -49.484375 L -0.375 -49.46875 L 1.984375 -42.03125 C 2.160156 -41.4375 2.253906 -41.007812 2.265625 -40.75 C 2.273438 -40.488281 2.144531 -40.273438 1.875 -40.109375 C 0.5 -39.222656 -0.878906 -38.300781 -2.265625 -37.34375 C -3.648438 -36.394531 -5.117188 -35.410156 -6.671875 -34.390625 C -6.722656 -34.347656 -6.796875 -34.304688 -6.890625 -34.265625 C -7.085938 -34.191406 -7.222656 -34.238281 -7.296875 -34.40625 Z M -7.296875 -34.40625 "/>
          </g>
        </g>
      </g>
      <g fill="#27a650" fill-opacity="1">
        <g transform="translate(76.662016, 95.970734)">
          <g>
            <path d="M 0.765625 -8.546875 C 0.753906 -8.566406 0.738281 -8.578125 0.71875 -8.578125 C 0.707031 -8.585938 0.703125 -8.601562 0.703125 -8.625 C 0.617188 -8.84375 0.703125 -9 0.953125 -9.09375 C 1.109375 -9.144531 1.269531 -9.132812 1.4375 -9.0625 C 2.394531 -8.632812 3.40625 -8.367188 4.46875 -8.265625 C 5.539062 -8.160156 6.613281 -8.296875 7.6875 -8.671875 C 7.96875 -8.765625 8.285156 -8.90625 8.640625 -9.09375 C 8.992188 -9.289062 9.3125 -9.515625 9.59375 -9.765625 C 9.882812 -10.023438 10.097656 -10.316406 10.234375 -10.640625 C 10.367188 -10.960938 10.375 -11.304688 10.25 -11.671875 C 10.113281 -12.046875 9.890625 -12.367188 9.578125 -12.640625 C 9.273438 -12.910156 8.921875 -13.085938 8.515625 -13.171875 C 8.296875 -13.242188 7.90625 -13.351562 7.34375 -13.5 C 6.789062 -13.65625 6.195312 -13.820312 5.5625 -14 C 4.9375 -14.1875 4.34375 -14.359375 3.78125 -14.515625 C 3.21875 -14.679688 2.820312 -14.804688 2.59375 -14.890625 C 1.582031 -15.210938 0.726562 -15.601562 0.03125 -16.0625 C -0.65625 -16.519531 -1.238281 -17.035156 -1.71875 -17.609375 C -2.207031 -18.191406 -2.617188 -18.835938 -2.953125 -19.546875 C -3.285156 -20.253906 -3.59375 -21.015625 -3.875 -21.828125 C -4.3125 -23.078125 -4.390625 -24.367188 -4.109375 -25.703125 C -3.828125 -27.046875 -3.296875 -28.320312 -2.515625 -29.53125 C -1.742188 -30.75 -0.757812 -31.84375 0.4375 -32.8125 C 1.644531 -33.789062 2.957031 -34.523438 4.375 -35.015625 C 5.5625 -35.429688 6.789062 -35.660156 8.0625 -35.703125 C 9.332031 -35.742188 10.597656 -35.507812 11.859375 -35 C 12.347656 -33.914062 12.800781 -32.832031 13.21875 -31.75 C 13.632812 -30.675781 14.085938 -29.554688 14.578125 -28.390625 C 14.660156 -28.148438 14.660156 -27.972656 14.578125 -27.859375 C 14.492188 -27.742188 14.382812 -27.664062 14.25 -27.625 C 14.125 -27.570312 14 -27.578125 13.875 -27.640625 C 13.320312 -27.878906 12.765625 -28.117188 12.203125 -28.359375 C 11.640625 -28.597656 11.070312 -28.78125 10.5 -28.90625 C 9.9375 -29.03125 9.351562 -29.09375 8.75 -29.09375 C 8.144531 -29.09375 7.539062 -28.988281 6.9375 -28.78125 C 6.5625 -28.644531 6.195312 -28.476562 5.84375 -28.28125 C 5.5 -28.09375 5.203125 -27.859375 4.953125 -27.578125 C 4.710938 -27.304688 4.546875 -26.992188 4.453125 -26.640625 C 4.367188 -26.285156 4.40625 -25.890625 4.5625 -25.453125 C 4.738281 -24.929688 4.953125 -24.503906 5.203125 -24.171875 C 5.460938 -23.835938 5.882812 -23.578125 6.46875 -23.390625 L 12.625 -21.765625 C 13.757812 -21.460938 14.710938 -21.109375 15.484375 -20.703125 C 16.253906 -20.304688 16.898438 -19.867188 17.421875 -19.390625 C 17.941406 -18.910156 18.363281 -18.398438 18.6875 -17.859375 C 19.007812 -17.328125 19.273438 -16.773438 19.484375 -16.203125 C 20.035156 -14.597656 20.148438 -13.054688 19.828125 -11.578125 C 19.515625 -10.097656 18.914062 -8.75 18.03125 -7.53125 C 17.144531 -6.3125 16.03125 -5.226562 14.6875 -4.28125 C 13.351562 -3.34375 11.929688 -2.613281 10.421875 -2.09375 C 9.285156 -1.6875 8.144531 -1.421875 7 -1.296875 C 5.863281 -1.171875 4.75 -1.195312 3.65625 -1.375 Z M 0.765625 -8.546875 "/>
          </g>
        </g>
      </g>
      <g fill="#27a650" fill-opacity="1">
        <g transform="translate(95.790223, 89.099117)">
          <g>
            <path d="M 12.09375 -26.046875 C 12.375 -24.066406 12.664062 -22.09375 12.96875 -20.125 C 13.269531 -18.164062 13.625 -16.347656 14.03125 -14.671875 C 14.226562 -13.972656 14.445312 -13.398438 14.6875 -12.953125 C 14.9375 -12.515625 15.203125 -12.191406 15.484375 -11.984375 C 15.765625 -11.773438 16.066406 -11.648438 16.390625 -11.609375 C 16.722656 -11.566406 17.070312 -11.597656 17.4375 -11.703125 C 18.019531 -11.859375 18.628906 -12.117188 19.265625 -12.484375 C 19.910156 -12.859375 20.539062 -13.273438 21.15625 -13.734375 C 21.34375 -13.890625 21.503906 -14.007812 21.640625 -14.09375 C 21.785156 -14.175781 21.914062 -14.234375 22.03125 -14.265625 C 22.207031 -14.316406 22.351562 -14.273438 22.46875 -14.140625 C 22.582031 -14.003906 22.726562 -13.738281 22.90625 -13.34375 C 23.082031 -12.945312 23.328125 -12.421875 23.640625 -11.765625 C 23.960938 -11.109375 24.414062 -10.296875 25 -9.328125 C 25.050781 -9.234375 25.085938 -9.15625 25.109375 -9.09375 C 25.140625 -9.039062 25.164062 -8.988281 25.1875 -8.9375 C 25.25 -8.6875 25.195312 -8.472656 25.03125 -8.296875 C 24.875 -8.128906 24.597656 -7.914062 24.203125 -7.65625 C 23.535156 -7.195312 22.820312 -6.71875 22.0625 -6.21875 C 21.3125 -5.71875 20.5625 -5.242188 19.8125 -4.796875 C 19.0625 -4.359375 18.332031 -3.96875 17.625 -3.625 C 16.914062 -3.28125 16.28125 -3.03125 15.71875 -2.875 C 12.6875 -2.019531 10.265625 -2.148438 8.453125 -3.265625 C 6.640625 -4.390625 5.300781 -6.5 4.4375 -9.59375 C 4.289062 -10.113281 4.15625 -10.65625 4.03125 -11.21875 C 3.90625 -11.789062 3.785156 -12.390625 3.671875 -13.015625 C 3.347656 -14.867188 3.03125 -16.628906 2.71875 -18.296875 C 2.40625 -19.960938 2.109375 -21.5625 1.828125 -23.09375 L -1.03125 -22.28125 C -2.007812 -22.007812 -2.726562 -21.851562 -3.1875 -21.8125 C -3.644531 -21.78125 -3.910156 -21.894531 -3.984375 -22.15625 C -4.003906 -22.226562 -3.96875 -22.441406 -3.875 -22.796875 C -3.78125 -23.160156 -3.65625 -23.601562 -3.5 -24.125 C -3.34375 -24.65625 -3.171875 -25.222656 -2.984375 -25.828125 C -2.804688 -26.429688 -2.628906 -27 -2.453125 -27.53125 C -2.285156 -28.0625 -2.132812 -28.519531 -2 -28.90625 C -1.875 -29.300781 -1.796875 -29.535156 -1.765625 -29.609375 L 0.171875 -30.15625 C -0.046875 -31.582031 -0.234375 -32.773438 -0.390625 -33.734375 C -0.554688 -34.703125 -0.691406 -35.503906 -0.796875 -36.140625 C -0.910156 -36.785156 -0.988281 -37.28125 -1.03125 -37.625 C -1.070312 -37.976562 -1.082031 -38.242188 -1.0625 -38.421875 C -1.039062 -38.609375 -0.984375 -38.738281 -0.890625 -38.8125 C -0.804688 -38.882812 -0.691406 -38.960938 -0.546875 -39.046875 C 0.222656 -39.429688 0.972656 -39.800781 1.703125 -40.15625 C 2.429688 -40.519531 3.15625 -40.878906 3.875 -41.234375 C 4.59375 -41.585938 5.320312 -41.96875 6.0625 -42.375 C 6.800781 -42.789062 7.5625 -43.25 8.34375 -43.75 C 8.394531 -43.757812 8.429688 -43.769531 8.453125 -43.78125 C 8.472656 -43.789062 8.507812 -43.804688 8.5625 -43.828125 C 8.78125 -43.890625 8.910156 -43.847656 8.953125 -43.703125 L 8.96875 -43.65625 C 9.15625 -42.625 9.398438 -41.191406 9.703125 -39.359375 C 10.003906 -37.523438 10.351562 -35.445312 10.75 -33.125 L 18.0625 -35.15625 C 18.21875 -35.207031 18.375 -35.203125 18.53125 -35.140625 C 18.695312 -35.078125 18.8125 -34.929688 18.875 -34.703125 C 18.90625 -34.597656 18.882812 -34.234375 18.8125 -33.609375 C 18.75 -32.984375 18.648438 -32.160156 18.515625 -31.140625 L 18.140625 -28.671875 C 18.097656 -28.347656 18.023438 -28.101562 17.921875 -27.9375 C 17.816406 -27.78125 17.566406 -27.625 17.171875 -27.46875 Z M 12.09375 -26.046875 "/>
          </g>
        </g>
      </g>
      <g fill="#27a650" fill-opacity="1">
        <g transform="translate(117.288367, 82.958166)">
          <g>
            <path d="M 21.265625 -28.015625 C 20.859375 -27.972656 20.410156 -27.921875 19.921875 -27.859375 C 19.429688 -27.804688 18.921875 -27.726562 18.390625 -27.625 C 17.578125 -27.445312 16.765625 -27.203125 15.953125 -26.890625 C 15.148438 -26.578125 14.425781 -26.140625 13.78125 -25.578125 C 13.144531 -25.015625 12.644531 -24.320312 12.28125 -23.5 C 11.914062 -22.6875 11.769531 -21.703125 11.84375 -20.546875 C 12.019531 -19.160156 12.15625 -18.015625 12.25 -17.109375 C 12.34375 -16.210938 12.429688 -15.476562 12.515625 -14.90625 C 12.597656 -14.34375 12.660156 -13.882812 12.703125 -13.53125 C 12.753906 -13.1875 12.800781 -12.863281 12.84375 -12.5625 C 12.851562 -12.488281 12.878906 -12.28125 12.921875 -11.9375 C 12.960938 -11.601562 13.003906 -11.207031 13.046875 -10.75 C 13.085938 -10.300781 13.140625 -9.8125 13.203125 -9.28125 C 13.265625 -8.75 13.3125 -8.253906 13.34375 -7.796875 C 13.375 -7.347656 13.410156 -6.957031 13.453125 -6.625 C 13.503906 -6.289062 13.535156 -6.085938 13.546875 -6.015625 C 13.578125 -5.859375 13.609375 -5.726562 13.640625 -5.625 C 13.671875 -5.53125 13.695312 -5.4375 13.71875 -5.34375 C 13.75 -5.195312 13.707031 -5.054688 13.59375 -4.921875 C 13.476562 -4.796875 13.195312 -4.617188 12.75 -4.390625 L 5.9375 -0.203125 C 5.75 -0.0859375 5.5 0.0546875 5.1875 0.234375 C 4.882812 0.410156 4.570312 0.535156 4.25 0.609375 C 4 0.660156 3.765625 0.644531 3.546875 0.5625 C 3.328125 0.476562 3.1875 0.273438 3.125 -0.046875 L -0.28125 -28 C -0.351562 -28.625 -0.367188 -29.0625 -0.328125 -29.3125 C -0.296875 -29.5625 -0.125 -29.757812 0.1875 -29.90625 C 1.8125 -30.582031 3.484375 -31.28125 5.203125 -32 C 6.921875 -32.726562 8.566406 -33.539062 10.140625 -34.4375 C 10.273438 -34.46875 10.359375 -34.460938 10.390625 -34.421875 C 10.429688 -34.378906 10.460938 -34.3125 10.484375 -34.21875 C 10.492188 -34.175781 10.5 -34.117188 10.5 -34.046875 C 10.507812 -33.972656 10.519531 -33.800781 10.53125 -33.53125 C 10.550781 -33.269531 10.570312 -32.863281 10.59375 -32.3125 C 10.613281 -31.757812 10.648438 -31 10.703125 -30.03125 C 11.410156 -30.863281 12.21875 -31.664062 13.125 -32.4375 C 14.03125 -33.21875 14.957031 -33.910156 15.90625 -34.515625 C 16.863281 -35.128906 17.800781 -35.648438 18.71875 -36.078125 C 19.632812 -36.515625 20.453125 -36.8125 21.171875 -36.96875 Z M 21.265625 -28.015625 "/>
          </g>
        </g>
      </g>
      <g fill="#27a650" fill-opacity="1">
        <g transform="translate(137.986207, 78.188225)">
          <g>
            <path d="M 19 -0.9375 C 16.363281 -0.601562 13.992188 -0.738281 11.890625 -1.34375 C 9.785156 -1.945312 7.96875 -2.878906 6.4375 -4.140625 C 4.914062 -5.398438 3.695312 -6.921875 2.78125 -8.703125 C 1.875 -10.484375 1.289062 -12.375 1.03125 -14.375 C 0.78125 -16.375 0.867188 -18.316406 1.296875 -20.203125 C 1.722656 -22.097656 2.4375 -23.835938 3.4375 -25.421875 C 4.4375 -27.015625 5.695312 -28.394531 7.21875 -29.5625 C 8.738281 -30.738281 10.472656 -31.625 12.421875 -32.21875 C 12.710938 -32.269531 12.851562 -32.351562 12.84375 -32.46875 C 12.8125 -32.664062 12.757812 -32.847656 12.6875 -33.015625 C 12.625 -33.191406 12.582031 -33.347656 12.5625 -33.484375 C 12.539062 -33.691406 12.5625 -33.835938 12.625 -33.921875 C 12.6875 -34.003906 12.765625 -34.050781 12.859375 -34.0625 C 16.441406 -34.519531 19.539062 -34.5 22.15625 -34 C 24.769531 -33.5 26.953125 -32.644531 28.703125 -31.4375 C 30.453125 -30.226562 31.800781 -28.71875 32.75 -26.90625 C 33.695312 -25.09375 34.3125 -23.09375 34.59375 -20.90625 C 34.945312 -18.113281 34.796875 -15.554688 34.140625 -13.234375 C 33.492188 -10.921875 32.453125 -8.90625 31.015625 -7.1875 C 29.585938 -5.46875 27.84375 -4.070312 25.78125 -3 C 23.71875 -1.9375 21.457031 -1.25 19 -0.9375 Z M 11.8125 -16.0625 C 11.9375 -15.050781 12.171875 -14.0625 12.515625 -13.09375 C 12.859375 -12.125 13.328125 -11.269531 13.921875 -10.53125 C 14.523438 -9.789062 15.257812 -9.222656 16.125 -8.828125 C 17 -8.429688 18.035156 -8.304688 19.234375 -8.453125 C 20.078125 -8.609375 20.800781 -8.894531 21.40625 -9.3125 C 22.007812 -9.738281 22.507812 -10.257812 22.90625 -10.875 C 23.3125 -11.5 23.625 -12.171875 23.84375 -12.890625 C 24.070312 -13.617188 24.226562 -14.363281 24.3125 -15.125 C 24.394531 -15.894531 24.425781 -16.640625 24.40625 -17.359375 C 24.382812 -18.085938 24.335938 -18.742188 24.265625 -19.328125 C 24.140625 -20.304688 23.875 -21.242188 23.46875 -22.140625 C 23.0625 -23.035156 22.53125 -23.800781 21.875 -24.4375 C 21.226562 -25.082031 20.457031 -25.570312 19.5625 -25.90625 C 18.664062 -26.238281 17.675781 -26.335938 16.59375 -26.203125 C 15.46875 -26.054688 14.566406 -25.601562 13.890625 -24.84375 C 13.210938 -24.082031 12.703125 -23.1875 12.359375 -22.15625 C 12.023438 -21.125 11.820312 -20.054688 11.75 -18.953125 C 11.6875 -17.847656 11.707031 -16.882812 11.8125 -16.0625 Z M 11.8125 -16.0625 "/>
          </g>
        </g>
      </g>
    </g>
  </g>
</svg>
