<?xml version="1.0"?>
<svg xmlns="http://www.w3.org/2000/svg" xmlns:xlink="http://www.w3.org/1999/xlink" width="500" zoomAndPan="magnify" viewBox="0 0 375 374.999991" height="500" preserveAspectRatio="xMidYMid meet" version="1.0" style="background-color:transparent;">
  <defs>
    <g/>
    <clipPath id="10e799538e">
      <path d="M 75 9 L 319 9 L 319 228.875 L 75 228.875 Z M 75 9 " clip-rule="nonzero"/>
    </clipPath>
    <clipPath id="6ee0352c9e">
      <path d="M 27 99 L 200 99 L 200 228.875 L 27 228.875 Z M 27 99 " clip-rule="nonzero"/>
    </clipPath>
    <clipPath id="9bf7951a3a">
      <rect x="0" width="310" y="0" height="256"/>
    </clipPath>
  </defs>
  <rect x="-37.5" width="450" fill="none" y="-37.499999" height="449.999989" fill-opacity="1"/>
  <rect x="-37.5" width="450" fill="none" y="-37.499999" height="449.999989" fill-opacity="1"/>
  <g clip-path="url(#10e799538e)">
    <path fill="#b4b4b4" d="M 75.648438 133.539062 C 75.648438 133.539062 110.734375 136.355469 165.792969 81.296875 C 220.851562 26.234375 266.347656 23.558594 286.667969 58.757812 C 306.992188 93.957031 274.890625 124.828125 274.890625 124.828125 C 274.890625 124.828125 277.066406 108.824219 277.066406 93.585938 C 277.066406 78.347656 270.917969 68.105469 270.917969 68.105469 C 270.917969 68.105469 272.785156 91.148438 269.765625 102.421875 C 266.746094 113.699219 255.167969 123.421875 255.167969 123.421875 L 247.996094 123.550781 C 247.996094 123.550781 250.070312 111.285156 246.460938 97.8125 C 242.851562 84.339844 232.246094 76.171875 232.246094 76.171875 C 232.246094 76.171875 241.210938 92.5625 241.210938 102.808594 C 241.210938 113.050781 239.417969 125.601562 239.417969 125.601562 C 239.417969 125.601562 213.300781 123.296875 179.238281 136.613281 C 145.179688 149.929688 120.851562 172.46875 120.851562 172.46875 C 120.851562 172.46875 181.800781 145.066406 220.726562 141.226562 C 259.652344 137.382812 277.582031 148.652344 277.582031 148.652344 L 286.289062 178.359375 C 286.289062 178.359375 247.367188 176.824219 207.160156 187.324219 C 166.953125 197.824219 123.417969 228.554688 123.417969 228.554688 C 123.417969 228.554688 194.867188 201.667969 235.328125 196.289062 C 275.792969 190.910156 308.570312 197.054688 308.570312 197.054688 L 289.875 141.226562 C 289.875 141.226562 341.101562 77.714844 305.503906 35.203125 C 269.90625 -7.308594 205.113281 3.191406 158.25 64.140625 C 111.382812 125.09375 75.648438 133.539062 75.648438 133.539062 Z M 75.648438 133.539062 " fill-opacity="1" fill-rule="evenodd"/>
  </g>
  <g clip-path="url(#6ee0352c9e)">
    <path fill="#27a650" d="M 100.886719 99.992188 C 100.886719 99.992188 36.09375 110.75 41.21875 151.46875 C 46.339844 192.1875 102.933594 173.238281 102.933594 173.238281 L 111.378906 204.757812 C 111.378906 204.757812 135.203125 191.164062 156.714844 184.503906 C 178.226562 177.847656 199.738281 180.917969 199.738281 180.917969 C 199.738281 180.917969 153.640625 188.605469 134.691406 203.199219 C 115.742188 217.796875 102.421875 228.808594 102.421875 228.808594 L 91.667969 192.445312 C 91.667969 192.445312 37.121094 203.457031 28.667969 159.152344 C 20.21875 114.847656 55.046875 96.152344 100.886719 99.992188 Z M 100.886719 99.992188 " fill-opacity="1" fill-rule="evenodd"/>
  </g>
  <g transform="matrix(1, 0, 0, 1, 65, 119)">
    <g clip-path="url(#9bf7951a3a)">
      <g fill="#27a650" fill-opacity="1">
        <g transform="translate(69.575921, 245.876959)">
          <g>
            <path d="M 19.375 -8.375 C 18.226562 -8.25 17.367188 -8.390625 16.796875 -8.796875 C 16.234375 -9.210938 15.828125 -9.757812 15.578125 -10.4375 C 15.523438 -10.59375 15.5 -10.703125 15.5 -10.765625 C 15.507812 -10.828125 15.484375 -10.9375 15.421875 -11.09375 C 13.734375 -16.875 11.988281 -22.9375 10.1875 -29.28125 C 8.394531 -35.625 6.59375 -42.085938 4.78125 -48.671875 C 2.976562 -55.265625 1.179688 -61.84375 -0.609375 -68.40625 C -2.410156 -74.96875 -4.144531 -81.347656 -5.8125 -87.546875 L -5.875 -87.515625 C -6.09375 -87.429688 -6.613281 -87.039062 -7.4375 -86.34375 C -8.269531 -85.644531 -9.222656 -84.875 -10.296875 -84.03125 C -11.378906 -83.1875 -12.484375 -82.375 -13.609375 -81.59375 C -14.742188 -80.8125 -15.703125 -80.28125 -16.484375 -80 C -17.171875 -79.738281 -17.75 -79.816406 -18.21875 -80.234375 C -18.695312 -80.648438 -19.054688 -81.171875 -19.296875 -81.796875 C -19.460938 -82.265625 -19.546875 -82.734375 -19.546875 -83.203125 C -19.660156 -87.796875 -19.625 -92.140625 -19.4375 -96.234375 C -19.25 -100.335938 -19.101562 -104.546875 -19 -108.859375 C -15.820312 -112.453125 -12.394531 -115.835938 -8.71875 -119.015625 C -5.050781 -122.191406 -1.242188 -125.125 2.703125 -127.8125 C 6.648438 -130.507812 10.675781 -132.9375 14.78125 -135.09375 C 18.894531 -137.25 22.984375 -139.082031 27.046875 -140.59375 C 32.710938 -142.707031 38.28125 -144.101562 43.75 -144.78125 C 49.21875 -145.457031 54.257812 -145.273438 58.875 -144.234375 C 63.5 -143.203125 67.578125 -141.253906 71.109375 -138.390625 C 74.640625 -135.535156 77.328125 -131.640625 79.171875 -126.703125 C 79.960938 -124.554688 80.257812 -122.320312 80.0625 -120 C 79.863281 -117.675781 79.359375 -115.335938 78.546875 -112.984375 C 77.734375 -110.640625 76.703125 -108.359375 75.453125 -106.140625 C 74.203125 -103.929688 72.925781 -101.875 71.625 -99.96875 C 74.789062 -99.070312 77.65625 -98.253906 80.21875 -97.515625 C 82.78125 -96.785156 85.0625 -95.875 87.0625 -94.78125 C 89.070312 -93.695312 90.8125 -92.289062 92.28125 -90.5625 C 93.757812 -88.832031 95.035156 -86.535156 96.109375 -83.671875 C 97.734375 -79.296875 98.519531 -74.832031 98.46875 -70.28125 C 98.414062 -65.738281 97.679688 -61.257812 96.265625 -56.84375 C 94.859375 -52.4375 92.835938 -48.171875 90.203125 -44.046875 C 87.578125 -39.921875 84.476562 -36.082031 80.90625 -32.53125 C 77.34375 -28.976562 73.378906 -25.78125 69.015625 -22.9375 C 64.648438 -20.09375 60.050781 -17.769531 55.21875 -15.96875 C 53.445312 -15.300781 51.007812 -14.597656 47.90625 -13.859375 C 44.800781 -13.117188 41.53125 -12.390625 38.09375 -11.671875 C 34.65625 -10.953125 31.25 -10.304688 27.875 -9.734375 C 24.507812 -9.160156 21.675781 -8.707031 19.375 -8.375 Z M 23.40625 -107.40625 C 24.707031 -100.90625 26.195312 -94.363281 27.875 -87.78125 C 29.5625 -81.207031 31.269531 -74.847656 33 -68.703125 C 34.726562 -62.566406 36.410156 -56.75 38.046875 -51.25 C 39.679688 -45.757812 41.101562 -40.84375 42.3125 -36.5 C 44.382812 -37.269531 46.585938 -38.222656 48.921875 -39.359375 C 51.253906 -40.492188 53.507812 -41.789062 55.6875 -43.25 C 57.875 -44.71875 59.929688 -46.328125 61.859375 -48.078125 C 63.785156 -49.835938 65.351562 -51.710938 66.5625 -53.703125 C 67.769531 -55.703125 68.550781 -57.816406 68.90625 -60.046875 C 69.257812 -62.285156 68.988281 -64.601562 68.09375 -67 C 67.550781 -68.445312 66.628906 -69.566406 65.328125 -70.359375 C 64.023438 -71.148438 62.53125 -71.691406 60.84375 -71.984375 C 59.164062 -72.273438 57.394531 -72.382812 55.53125 -72.3125 C 53.664062 -72.238281 51.875 -72.070312 50.15625 -71.8125 C 48.4375 -71.5625 46.878906 -71.28125 45.484375 -70.96875 C 44.097656 -70.664062 43.046875 -70.4375 42.328125 -70.28125 C 41.566406 -70.113281 41.003906 -70.195312 40.640625 -70.53125 C 40.273438 -70.875 39.972656 -71.359375 39.734375 -71.984375 C 39.484375 -72.660156 39.519531 -73.828125 39.84375 -75.484375 C 40.175781 -77.148438 40.632812 -79.425781 41.21875 -82.3125 L 42.5625 -88.75 C 43.769531 -89.8125 45.046875 -91.035156 46.390625 -92.421875 C 47.742188 -93.816406 48.929688 -95.28125 49.953125 -96.8125 C 50.972656 -98.351562 51.710938 -99.929688 52.171875 -101.546875 C 52.628906 -103.171875 52.578125 -104.738281 52.015625 -106.25 C 50.421875 -110.519531 48.28125 -113.441406 45.59375 -115.015625 C 42.90625 -116.585938 39.820312 -116.726562 36.34375 -115.4375 C 32.375 -113.957031 28.0625 -111.28125 23.40625 -107.40625 Z M 23.40625 -107.40625 "/>
          </g>
        </g>
      </g>
      <g fill="#27a650" fill-opacity="1">
        <g transform="translate(154.4271, 208.982848)">
          <g>
            <path d="M 21.078125 -0.953125 C 19.972656 -1.242188 19.226562 -1.679688 18.84375 -2.265625 C 18.457031 -2.847656 18.269531 -3.5 18.28125 -4.21875 C 18.28125 -4.382812 18.289062 -4.492188 18.3125 -4.546875 C 18.34375 -4.609375 18.359375 -4.722656 18.359375 -4.890625 C 18.828125 -10.890625 19.347656 -17.175781 19.921875 -23.75 C 20.492188 -30.320312 21.101562 -37.007812 21.75 -43.8125 C 22.394531 -50.613281 23.039062 -57.398438 23.6875 -64.171875 C 24.34375 -70.941406 25 -77.519531 25.65625 -83.90625 L 25.578125 -83.90625 C 25.347656 -83.90625 24.71875 -83.726562 23.6875 -83.375 C 22.65625 -83.019531 21.488281 -82.632812 20.1875 -82.21875 C 18.882812 -81.8125 17.5625 -81.445312 16.21875 -81.125 C 14.882812 -80.800781 13.800781 -80.640625 12.96875 -80.640625 C 12.238281 -80.648438 11.722656 -80.929688 11.421875 -81.484375 C 11.128906 -82.035156 10.984375 -82.644531 10.984375 -83.3125 C 10.992188 -83.8125 11.082031 -84.285156 11.25 -84.734375 C 12.769531 -89.054688 14.347656 -93.097656 15.984375 -96.859375 C 17.617188 -100.628906 19.25 -104.507812 20.875 -108.5 C 25.113281 -110.75 29.515625 -112.707031 34.078125 -114.375 C 38.640625 -116.039062 43.238281 -117.429688 47.875 -118.546875 C 52.519531 -119.660156 57.148438 -120.492188 61.765625 -121.046875 C 66.378906 -121.597656 70.851562 -121.863281 75.1875 -121.84375 C 81.238281 -121.8125 86.941406 -121.140625 92.296875 -119.828125 C 97.648438 -118.523438 102.300781 -116.566406 106.25 -113.953125 C 110.207031 -111.347656 113.328125 -108.078125 115.609375 -104.140625 C 117.890625 -100.210938 119.015625 -95.613281 118.984375 -90.34375 C 118.972656 -88.0625 118.460938 -85.867188 117.453125 -83.765625 C 116.441406 -81.671875 115.132812 -79.664062 113.53125 -77.75 C 111.9375 -75.84375 110.164062 -74.078125 108.21875 -72.453125 C 106.269531 -70.835938 104.347656 -69.367188 102.453125 -68.046875 C 105.097656 -66.078125 107.484375 -64.296875 109.609375 -62.703125 C 111.742188 -61.109375 113.554688 -59.445312 115.046875 -57.71875 C 116.535156 -55.988281 117.660156 -54.050781 118.421875 -51.90625 C 119.191406 -49.757812 119.566406 -47.160156 119.546875 -44.109375 C 119.515625 -39.441406 118.664062 -34.988281 117 -30.75 C 115.34375 -26.519531 113.070312 -22.59375 110.1875 -18.96875 C 107.300781 -15.34375 103.894531 -12.070312 99.96875 -9.15625 C 96.039062 -6.238281 91.78125 -3.75 87.1875 -1.6875 C 82.59375 0.363281 77.75 1.941406 72.65625 3.046875 C 67.570312 4.148438 62.445312 4.691406 57.28125 4.671875 C 55.394531 4.648438 52.867188 4.4375 49.703125 4.03125 C 46.546875 3.632812 43.226562 3.160156 39.75 2.609375 C 36.28125 2.054688 32.867188 1.453125 29.515625 0.796875 C 26.160156 0.140625 23.347656 -0.441406 21.078125 -0.953125 Z M 60.015625 -92.109375 C 58.921875 -85.554688 57.988281 -78.910156 57.21875 -72.171875 C 56.457031 -65.429688 55.796875 -58.882812 55.234375 -52.53125 C 54.671875 -46.175781 54.179688 -40.140625 53.765625 -34.421875 C 53.347656 -28.703125 52.925781 -23.59375 52.5 -19.09375 C 54.71875 -19.082031 57.117188 -19.191406 59.703125 -19.421875 C 62.296875 -19.660156 64.867188 -20.078125 67.421875 -20.671875 C 69.984375 -21.265625 72.472656 -22.039062 74.890625 -23 C 77.316406 -23.96875 79.445312 -25.164062 81.28125 -26.59375 C 83.125 -28.019531 84.609375 -29.71875 85.734375 -31.6875 C 86.859375 -33.65625 87.429688 -35.914062 87.453125 -38.46875 C 87.460938 -40.019531 86.992188 -41.394531 86.046875 -42.59375 C 85.109375 -43.789062 83.90625 -44.828125 82.4375 -45.703125 C 80.976562 -46.578125 79.363281 -47.3125 77.59375 -47.90625 C 75.820312 -48.5 74.085938 -48.976562 72.390625 -49.34375 C 70.691406 -49.71875 69.132812 -50.003906 67.71875 -50.203125 C 66.3125 -50.398438 65.242188 -50.5625 64.515625 -50.6875 C 63.742188 -50.800781 63.25 -51.082031 63.03125 -51.53125 C 62.8125 -51.976562 62.703125 -52.535156 62.703125 -53.203125 C 62.710938 -53.921875 63.164062 -55 64.0625 -56.4375 C 64.957031 -57.875 66.191406 -59.835938 67.765625 -62.328125 L 71.296875 -67.875 C 72.796875 -68.4375 74.421875 -69.128906 76.171875 -69.953125 C 77.929688 -70.773438 79.5625 -71.722656 81.0625 -72.796875 C 82.5625 -73.867188 83.816406 -75.082031 84.828125 -76.4375 C 85.835938 -77.789062 86.347656 -79.269531 86.359375 -80.875 C 86.378906 -85.4375 85.410156 -88.925781 83.453125 -91.34375 C 81.503906 -93.769531 78.671875 -94.992188 74.953125 -95.015625 C 70.722656 -95.035156 65.742188 -94.066406 60.015625 -92.109375 Z M 60.015625 -92.109375 "/>
          </g>
        </g>
      </g>
    </g>
  </g>
</svg>
